<svg xmlns="http://www.w3.org/2000/svg" width="488.852" height="151.449" viewBox="0 0 488.852 151.449">
  <g id="logo" transform="translate(-55.98 -62.431)">
    <path id="Контур_323" data-name="Контур 323" d="M42.5,25.336a9.321,9.321,0,0,1-7.028-2.926,10.029,10.029,0,0,1-2.8-7.21A10,10,0,0,1,35.5,8.018a9.4,9.4,0,0,1,7.084-2.954,10.007,10.007,0,0,1,4.2.8,12.627,12.627,0,0,1,3.388,2.366L48.721,9.8a8.791,8.791,0,0,0-6.16-2.688,7.106,7.106,0,0,0-5.418,2.324,8.129,8.129,0,0,0-2.17,5.768,8.112,8.112,0,0,0,2.184,5.754,7.1,7.1,0,0,0,5.4,2.338,7.667,7.667,0,0,0,3.36-.7,11.951,11.951,0,0,0,2.968-2.128L50.345,22A12.13,12.13,0,0,1,46.873,24.5,10.36,10.36,0,0,1,42.5,25.336ZM59.389,25V7.416h-6.58V5.4h15.4V7.416h-6.58V25Zm12.964,0V5.4h7.336a8.015,8.015,0,0,1,5.348,1.68,5.694,5.694,0,0,1,1.988,4.592,5.61,5.61,0,0,1-2.2,4.732,8.8,8.8,0,0,1-5.5,1.68h-4.76V25Zm2.212-8.932h4.844a6.021,6.021,0,0,0,3.906-1.19,3.88,3.88,0,0,0,1.47-3.178,3.765,3.765,0,0,0-1.414-3.15,6.092,6.092,0,0,0-3.85-1.106H74.565ZM91.057,25V5.4h2.212V21.668L104.973,5.4h2.1V25h-2.184V8.732L93.213,25Zm26.74,0V7.416h-6.58V5.4h15.4V7.416h-6.58V25Zm21.644.728V23.572q-4.676,0-7.294-2.3a7.782,7.782,0,0,1-2.618-6.16,7.739,7.739,0,0,1,2.618-6.146q2.618-2.282,7.294-2.282V4.756h2.212V6.688q4.676,0,7.294,2.282a7.739,7.739,0,0,1,2.618,6.146,7.782,7.782,0,0,1-2.618,6.16q-2.618,2.3-7.294,2.3v2.156Zm0-4.172V8.7a8.524,8.524,0,0,0-5.628,1.666,5.879,5.879,0,0,0-1.988,4.774,5.838,5.838,0,0,0,1.988,4.76A8.574,8.574,0,0,0,139.441,21.556Zm2.212,0a8.574,8.574,0,0,0,5.628-1.652,5.838,5.838,0,0,0,1.988-4.76,5.879,5.879,0,0,0-1.988-4.774A8.524,8.524,0,0,0,141.653,8.7Zm17.108,3.78a7.088,7.088,0,0,1-3.3-.812l.868-1.764a5.173,5.173,0,0,0,2.492.588q2.38,0,3.92-2.94L154.113,5.4h2.52l7.224,12.8L170.1,5.4h2.408l-7.756,15.484Q162.541,25.336,158.761,25.336ZM173.8,29.368V22.984h2.016q2.968-4.732,2.968-14.168V5.4H191.6V22.984h2.548l-.336,6.384h-1.848V25h-15.9l-.392,4.368Zm4.508-6.384h11.088V7.416h-8.484V9.964a38.778,38.778,0,0,1-.7,7.448A17.357,17.357,0,0,1,178.3,22.984ZM214.2,25V5.4h2.212v8.708h11.312V5.4h2.212V25h-2.212V16.18H216.413V25Zm19.6,0,8.932-19.74H244.8L253.737,25h-2.38l-2.3-5.18H238.393L236.069,25Zm5.46-7.168h8.932l-4.452-10ZM266,25V5.4h15.456V25h-2.212V7.416H268.213V25Zm20.636.224a7.011,7.011,0,0,1-2.548-.476l.448-1.792a4.309,4.309,0,0,0,1.736.28,2.657,2.657,0,0,0,1.008-.182,2.986,2.986,0,0,0,1.064-1.008,6.767,6.767,0,0,0,1.008-2.268,28.759,28.759,0,0,0,.686-4.228,63.879,63.879,0,0,0,.294-6.594V5.4h12.684V25H300.8V7.416h-8.344V9.544a63.7,63.7,0,0,1-.322,6.888,25.564,25.564,0,0,1-.84,4.578,7.867,7.867,0,0,1-1.316,2.646,3.981,3.981,0,0,1-1.568,1.274A4.966,4.966,0,0,1,286.637,25.224ZM306.965,25l6.132-7.868a7.031,7.031,0,0,1-3.892-1.946,5.33,5.33,0,0,1-1.456-3.878,5.184,5.184,0,0,1,1.484-3.92A7.731,7.731,0,0,1,314.945,5.4h8.372V25H321.1V17.5h-5.628L309.653,25Zm8.12-9.38h6.02V7.388h-6.02a5.8,5.8,0,0,0-3.766,1.106,3.645,3.645,0,0,0-1.358,2.982,3.652,3.652,0,0,0,1.428,3.01A5.763,5.763,0,0,0,315.085,15.62ZM326.761,25l8.064-11.2-7.56-8.4h2.744l10.22,11.564V5.4h2.212V16.964L352.661,5.4H355.4l-7.56,8.4L355.909,25h-2.744l-6.86-9.548-3.864,4.284V25h-2.212V19.736l-3.892-4.284L329.5,25Zm32.592,0V5.4h14.168V7.416H361.565v6.692h10.7v2.016h-10.7v6.86h12.1V25Zm27.16,0V5.4h7.336A8.015,8.015,0,0,1,399.2,7.08a5.694,5.694,0,0,1,1.988,4.592,5.61,5.61,0,0,1-2.2,4.732,8.8,8.8,0,0,1-5.5,1.68h-4.76V25Zm2.212-8.932h4.844a6.021,6.021,0,0,0,3.906-1.19,3.88,3.88,0,0,0,1.47-3.178,3.765,3.765,0,0,0-1.414-3.15,6.092,6.092,0,0,0-3.85-1.106h-4.956ZM405.217,25V5.4h2.212V21.668L419.133,5.4h2.1V25h-2.184V8.732L407.373,25Zm21.56,0V5.4h8.344a6.833,6.833,0,0,1,5.124,1.736,4.446,4.446,0,0,1,1.26,3.192,4.639,4.639,0,0,1-3.108,4.536q4.2,1.26,4.2,4.788a4.609,4.609,0,0,1-1.932,3.92A8.523,8.523,0,0,1,435.485,25Zm2.184-1.988h6.58a5.885,5.885,0,0,0,3.528-.938,3.054,3.054,0,0,0,1.288-2.618,2.8,2.8,0,0,0-1.33-2.492,7.125,7.125,0,0,0-3.878-.868h-6.188Zm0-8.876h5.8a5.329,5.329,0,0,0,3.276-.924,3.094,3.094,0,0,0,1.232-2.632,2.768,2.768,0,0,0-1.134-2.338,5.241,5.241,0,0,0-3.206-.854h-5.964ZM446.993,25V5.4H449.2v7.588h4.956a9.65,9.65,0,0,1,5.5,1.428,4.881,4.881,0,0,1,2.114,4.34A5.681,5.681,0,0,1,459.8,23.32,7.915,7.915,0,0,1,454.5,25Zm2.212-2.016h5.236a5.965,5.965,0,0,0,3.766-1.064,3.71,3.71,0,0,0,1.358-3.108,3.278,3.278,0,0,0-1.386-2.856,6.636,6.636,0,0,0-3.878-.98h-5.1ZM465.809,25V5.4h14.168V7.416H468.021v6.692h10.7v2.016h-10.7v6.86h12.1V25Zm18.76,0V5.4H491.9a8.015,8.015,0,0,1,5.348,1.68,5.694,5.694,0,0,1,1.988,4.592,5.61,5.61,0,0,1-2.2,4.732,8.8,8.8,0,0,1-5.5,1.68h-4.76V25Zm2.212-8.932h4.844a6.021,6.021,0,0,0,3.906-1.19A3.88,3.88,0,0,0,497,11.7a3.765,3.765,0,0,0-1.414-3.15,6.092,6.092,0,0,0-3.85-1.106h-4.956ZM501.593,25l8.932-19.74H512.6L521.529,25h-2.38l-2.3-5.18H506.185L503.861,25Zm5.46-7.168h8.932l-4.452-10ZM178.445,55.954a10.157,10.157,0,0,1-14.364.014,10.519,10.519,0,0,1,.028-14.322,10.157,10.157,0,0,1,14.364-.014,10.519,10.519,0,0,1-.028,14.322Zm-12.67-1.414a7.66,7.66,0,0,0,11.032.014,8.653,8.653,0,0,0-.028-11.494,7.66,7.66,0,0,0-11.032-.014,8.653,8.653,0,0,0,.028,11.494Zm25.354,4.06V41.016h-6.58V39h15.4v2.016h-6.58V58.6Zm21.364,0V39h7.336a8.015,8.015,0,0,1,5.348,1.68,5.694,5.694,0,0,1,1.988,4.592,5.61,5.61,0,0,1-2.2,4.732,8.8,8.8,0,0,1-5.5,1.68H214.7V58.6Zm2.212-8.932h4.844a6.021,6.021,0,0,0,3.906-1.19,3.88,3.88,0,0,0,1.47-3.178,3.765,3.765,0,0,0-1.414-3.15,6.092,6.092,0,0,0-3.85-1.106H214.7ZM231.2,58.6V39h14.168v2.016H233.409v6.692h10.7v2.016h-10.7v6.86h12.1V58.6Zm27.72.336a9.321,9.321,0,0,1-7.028-2.926,10.608,10.608,0,0,1,.028-14.392A9.4,9.4,0,0,1,259,38.664a10.007,10.007,0,0,1,4.2.8,12.627,12.627,0,0,1,3.388,2.366L265.133,43.4a8.791,8.791,0,0,0-6.16-2.688,7.106,7.106,0,0,0-5.418,2.324,8.711,8.711,0,0,0,.014,11.522,7.1,7.1,0,0,0,5.4,2.338,7.667,7.667,0,0,0,3.36-.7,11.95,11.95,0,0,0,2.968-2.128l1.456,1.54a12.13,12.13,0,0,1-3.472,2.492A10.36,10.36,0,0,1,258.917,58.936ZM275.8,58.6V41.016h-6.58V39h15.4v2.016h-6.58V58.6Zm29.26-2.646a10.157,10.157,0,0,1-14.364.014,10.519,10.519,0,0,1,.028-14.322,10.157,10.157,0,0,1,14.364-.014,10.519,10.519,0,0,1-.028,14.322Zm-12.67-1.414a7.66,7.66,0,0,0,11.032.014,8.653,8.653,0,0,0-.028-11.494,7.66,7.66,0,0,0-11.032-.014,8.653,8.653,0,0,0,.028,11.494Zm20.174,4.06V39H319.9a8.015,8.015,0,0,1,5.348,1.68,5.694,5.694,0,0,1,1.988,4.592,5.61,5.61,0,0,1-2.2,4.732,8.8,8.8,0,0,1-5.5,1.68h-4.76V58.6Zm2.212-8.932h4.844a6.021,6.021,0,0,0,3.906-1.19A3.88,3.88,0,0,0,325,45.3a3.765,3.765,0,0,0-1.414-3.15,6.092,6.092,0,0,0-3.85-1.106h-4.956ZM329.589,58.6l8.932-19.74h2.072l8.932,19.74h-2.38l-2.3-5.18H334.181l-2.324,5.18Zm5.46-7.168h8.932l-4.452-10Zm18.34,7.168V39H355.6v8.708h11.312V39h2.212V58.6h-2.212V49.78H355.6V58.6Zm19.6,0,8.932-19.74h2.072l8.932,19.74h-2.38l-2.3-5.18H377.581l-2.324,5.18Zm5.46-7.168h8.932l-4.452-10Z" transform="translate(23.303 57.675)"/>
    <g id="Сгруппировать_8" data-name="Сгруппировать 8">
      <path id="Контур_311" data-name="Контур 311" d="M182.052,138.065c-.332,0-.658-.024-.982-.056-.091-.009-.183-.018-.274-.029q-.431-.056-.849-.145c-.113-.025-.224-.054-.336-.082-.13-.032-.255-.077-.384-.114a12.656,12.656,0,0,0-1.468-.537,13.246,13.246,0,0,0-6.715-.159c-.087-.137,0,.014,0,0a13.1,13.1,0,0,0-6.288,3.5,8.49,8.49,0,0,0-1.039,1.349,4.581,4.581,0,0,0-.754,2.513v43.451h6.294V146s1.252-4.437,8.888-3.328c0,0,2.329.34,3.162.4.29.02.582.032.877.032a13.1,13.1,0,0,0,5.759-1.339v-5.587A10.1,10.1,0,0,1,182.052,138.065Z" fill="#292320"/>
      <path id="Контур_312" data-name="Контур 312" d="M204.4,136.468h0a13.019,13.019,0,0,0-12.98,12.981V175.12A13.018,13.018,0,0,0,204.4,188.1h0a13.018,13.018,0,0,0,12.98-12.98V149.449A13.019,13.019,0,0,0,204.4,136.468Zm6.146,44.923A3.555,3.555,0,0,1,207,184.936H201.39a3.555,3.555,0,0,1-3.544-3.545V143.286a3.555,3.555,0,0,1,3.544-3.545H207a3.555,3.555,0,0,1,3.545,3.545Z" fill="#292320"/>
      <path id="Контур_313" data-name="Контур 313" d="M242.746,167.924v13.467a3.555,3.555,0,0,1-3.545,3.545h-5.613a3.555,3.555,0,0,1-3.544-3.545V143.286a3.555,3.555,0,0,1,3.544-3.545H239.2a3.555,3.555,0,0,1,3.545,3.545v12.822h6.834v-6.659a12.98,12.98,0,1,0-25.96,0v25.67a12.98,12.98,0,1,0,25.96,0v-7.2Z" fill="#292320"/>
      <path id="Контур_314" data-name="Контур 314" d="M291.25,145.386a12.959,12.959,0,0,0-9.818,4.518,12.963,12.963,0,0,0-22.8,8.463v17.4a13.031,13.031,0,0,0,9.083,12.378v-2.678a3.556,3.556,0,0,1-2.659-3.428V152.2a3.555,3.555,0,0,1,3.545-3.545h5.612a3.555,3.555,0,0,1,3.545,3.545V174.62h6.932V152.2a3.555,3.555,0,0,1,3.545-3.545h5.613a3.555,3.555,0,0,1,3.544,3.545v29.834a3.559,3.559,0,0,1-2.5,3.387v2.794a13.03,13.03,0,0,0,9.336-12.453v-17.4A13.019,13.019,0,0,0,291.25,145.386Z" fill="#292320"/>
      <path id="Контур_315" data-name="Контур 315" d="M437.041,155.7v-6.66a12.98,12.98,0,1,0-25.96,0v25.671a12.98,12.98,0,1,0,25.96,0v-7.2h-6.834v13.467a3.555,3.555,0,0,1-3.545,3.545h-5.613a3.555,3.555,0,0,1-3.544-3.545V164.337h11.437v-4.619H417.505V142.88a3.555,3.555,0,0,1,3.544-3.544h5.613a3.555,3.555,0,0,1,3.545,3.544V155.7Z" fill="#292320"/>
      <path id="Контур_316" data-name="Контур 316" d="M385.761,167.814v13.468a3.555,3.555,0,0,0,3.545,3.544h5.612a3.555,3.555,0,0,0,3.545-3.544V169.511a4.327,4.327,0,0,0-4.3-4.327l-5.739-.036V159.5l5.284.011a4.744,4.744,0,0,0,4.755-4.744v-11.59a3.555,3.555,0,0,0-3.545-3.545h-5.612a3.555,3.555,0,0,0-3.545,3.545V156h-6.835v-6.452c0-6.493,5.268-12.517,11.733-13.129a13.014,13.014,0,0,1,14.228,12.921V154.7a7.911,7.911,0,0,1-5.779,7.617h0l.7.126a6.177,6.177,0,0,1,5.081,6.079V174.8c0,6.494-5.268,12.517-11.733,13.13a13.014,13.014,0,0,1-14.228-12.921v-7.2Z" fill="#292320"/>
      <path id="Контур_317" data-name="Контур 317" d="M333.171,136.622v44.769a3.555,3.555,0,0,1-3.544,3.545h-5.613a3.555,3.555,0,0,1-3.545-3.545V136.622h-6.484c-.063,3.436.06,12.055.06,12.827v25.67A13.019,13.019,0,0,0,327.026,188.1a12.873,12.873,0,0,0,6.145-1.558v1.479h6.835V149.449c0-.792.136-9.64.064-12.827Z" fill="#292320"/>
      <path id="Контур_318" data-name="Контур 318" d="M358.893,136.359h0a13.018,13.018,0,0,0-12.98,12.98V175.01a13.018,13.018,0,0,0,12.98,12.98h0a13.018,13.018,0,0,0,12.98-12.98V149.339A13.018,13.018,0,0,0,358.893,136.359Zm6.146,44.923a3.555,3.555,0,0,1-3.545,3.544h-5.612a3.555,3.555,0,0,1-3.545-3.544V143.176a3.555,3.555,0,0,1,3.545-3.545h5.612a3.555,3.555,0,0,1,3.545,3.545Z" fill="#292320"/>
      <rect id="Прямоугольник_6" data-name="Прямоугольник 6" width="6.92" height="47.077" transform="translate(365.036 166.803)" fill="#292320"/>
      <path id="Контур_319" data-name="Контур 319" d="M340.188,213.88V200.735a3.555,3.555,0,0,1,3.545-3.545h17.758a3.556,3.556,0,0,1,3.545,3.545V213.88h6.837v-8.963a10.471,10.471,0,0,0-10.44-10.44H343.708a10.471,10.471,0,0,0-10.44,10.44v8.963Z" fill="#292320"/>
      <path id="Контур_320" data-name="Контур 320" d="M348.777,211.167H337.6a3.486,3.486,0,0,1-.634-.061v2.748c.229.015.459.026.692.026h11.124Z" fill="#292320"/>
      <path id="Контур_321" data-name="Контур 321" d="M286.611,128.6l-26.674,14.348-5.1-2.746,26.674-14.348Z" fill="#292320"/>
      <path id="Контур_322" data-name="Контур 322" d="M281.358,125.857l26.674,14.348-5.1,2.746L276.254,128.6Z" fill="#292320"/>
    </g>
  </g>
</svg>
