<svg xmlns="http://www.w3.org/2000/svg" width="554" height="156.205" viewBox="0 0 554 156.205">
  <g id="logo" transform="translate(-23.303 -57.675)">
    <text id="СТРИТФУД_НА_ПЛЯЖЕ_РИВЬЕРА_ОТ_РЕСТОРАНА" data-name="СТРИТФУД  НА ПЛЯЖЕ РИВЬЕРА 
ОТ РЕСТОРАНА" transform="translate(23.303 57.675)" font-size="28" font-family="SegoeUI, Segoe UI"><tspan x="67.64" y="30" xml:space="preserve">СТРИТФУД  НА ПЛЯЖЕ РИВЬЕРА </tspan><tspan x="177.651" y="63.6">ОТ РЕСТОРАНА</tspan></text>
    <g id="Сгруппировать_8" data-name="Сгруппировать 8">
      <path id="Контур_311" data-name="Контур 311" d="M182.052,138.065c-.332,0-.658-.024-.982-.056-.091-.009-.183-.018-.274-.029q-.431-.056-.849-.145c-.113-.025-.224-.054-.336-.082-.13-.032-.255-.077-.384-.114a12.656,12.656,0,0,0-1.468-.537,13.246,13.246,0,0,0-6.715-.159c-.087-.137,0,.014,0,0a13.1,13.1,0,0,0-6.288,3.5,8.49,8.49,0,0,0-1.039,1.349,4.581,4.581,0,0,0-.754,2.513v43.451h6.294V146s1.252-4.437,8.888-3.328c0,0,2.329.34,3.162.4.29.02.582.032.877.032a13.1,13.1,0,0,0,5.759-1.339v-5.587A10.1,10.1,0,0,1,182.052,138.065Z" fill="#292320"/>
      <path id="Контур_312" data-name="Контур 312" d="M204.4,136.468h0a13.019,13.019,0,0,0-12.98,12.981V175.12A13.018,13.018,0,0,0,204.4,188.1h0a13.018,13.018,0,0,0,12.98-12.98V149.449A13.019,13.019,0,0,0,204.4,136.468Zm6.146,44.923A3.555,3.555,0,0,1,207,184.936H201.39a3.555,3.555,0,0,1-3.544-3.545V143.286a3.555,3.555,0,0,1,3.544-3.545H207a3.555,3.555,0,0,1,3.545,3.545Z" fill="#292320"/>
      <path id="Контур_313" data-name="Контур 313" d="M242.746,167.924v13.467a3.555,3.555,0,0,1-3.545,3.545h-5.613a3.555,3.555,0,0,1-3.544-3.545V143.286a3.555,3.555,0,0,1,3.544-3.545H239.2a3.555,3.555,0,0,1,3.545,3.545v12.822h6.834v-6.659a12.98,12.98,0,1,0-25.96,0v25.67a12.98,12.98,0,1,0,25.96,0v-7.2Z" fill="#292320"/>
      <path id="Контур_314" data-name="Контур 314" d="M291.25,145.386a12.959,12.959,0,0,0-9.818,4.518,12.963,12.963,0,0,0-22.8,8.463v17.4a13.031,13.031,0,0,0,9.083,12.378v-2.678a3.556,3.556,0,0,1-2.659-3.428V152.2a3.555,3.555,0,0,1,3.545-3.545h5.612a3.555,3.555,0,0,1,3.545,3.545V174.62h6.932V152.2a3.555,3.555,0,0,1,3.545-3.545h5.613a3.555,3.555,0,0,1,3.544,3.545v29.834a3.559,3.559,0,0,1-2.5,3.387v2.794a13.03,13.03,0,0,0,9.336-12.453v-17.4A13.019,13.019,0,0,0,291.25,145.386Z" fill="#292320"/>
      <path id="Контур_315" data-name="Контур 315" d="M437.041,155.7v-6.66a12.98,12.98,0,1,0-25.96,0v25.671a12.98,12.98,0,1,0,25.96,0v-7.2h-6.834v13.467a3.555,3.555,0,0,1-3.545,3.545h-5.613a3.555,3.555,0,0,1-3.544-3.545V164.337h11.437v-4.619H417.505V142.88a3.555,3.555,0,0,1,3.544-3.544h5.613a3.555,3.555,0,0,1,3.545,3.544V155.7Z" fill="#292320"/>
      <path id="Контур_316" data-name="Контур 316" d="M385.761,167.814v13.468a3.555,3.555,0,0,0,3.545,3.544h5.612a3.555,3.555,0,0,0,3.545-3.544V169.511a4.327,4.327,0,0,0-4.3-4.327l-5.739-.036V159.5l5.284.011a4.744,4.744,0,0,0,4.755-4.744v-11.59a3.555,3.555,0,0,0-3.545-3.545h-5.612a3.555,3.555,0,0,0-3.545,3.545V156h-6.835v-6.452c0-6.493,5.268-12.517,11.733-13.129a13.014,13.014,0,0,1,14.228,12.921V154.7a7.911,7.911,0,0,1-5.779,7.617h0l.7.126a6.177,6.177,0,0,1,5.081,6.079V174.8c0,6.494-5.268,12.517-11.733,13.13a13.014,13.014,0,0,1-14.228-12.921v-7.2Z" fill="#292320"/>
      <path id="Контур_317" data-name="Контур 317" d="M333.171,136.622v44.769a3.555,3.555,0,0,1-3.544,3.545h-5.613a3.555,3.555,0,0,1-3.545-3.545V136.622h-6.484c-.063,3.436.06,12.055.06,12.827v25.67A13.019,13.019,0,0,0,327.026,188.1a12.873,12.873,0,0,0,6.145-1.558v1.479h6.835V149.449c0-.792.136-9.64.064-12.827Z" fill="#292320"/>
      <path id="Контур_318" data-name="Контур 318" d="M358.893,136.359h0a13.018,13.018,0,0,0-12.98,12.98V175.01a13.018,13.018,0,0,0,12.98,12.98h0a13.018,13.018,0,0,0,12.98-12.98V149.339A13.018,13.018,0,0,0,358.893,136.359Zm6.146,44.923a3.555,3.555,0,0,1-3.545,3.544h-5.612a3.555,3.555,0,0,1-3.545-3.544V143.176a3.555,3.555,0,0,1,3.545-3.545h5.612a3.555,3.555,0,0,1,3.545,3.545Z" fill="#292320"/>
      <rect id="Прямоугольник_6" data-name="Прямоугольник 6" width="6.92" height="47.077" transform="translate(365.036 166.803)" fill="#292320"/>
      <path id="Контур_319" data-name="Контур 319" d="M340.188,213.88V200.735a3.555,3.555,0,0,1,3.545-3.545h17.758a3.556,3.556,0,0,1,3.545,3.545V213.88h6.837v-8.963a10.471,10.471,0,0,0-10.44-10.44H343.708a10.471,10.471,0,0,0-10.44,10.44v8.963Z" fill="#292320"/>
      <path id="Контур_320" data-name="Контур 320" d="M348.777,211.167H337.6a3.486,3.486,0,0,1-.634-.061v2.748c.229.015.459.026.692.026h11.124Z" fill="#292320"/>
      <path id="Контур_321" data-name="Контур 321" d="M286.611,128.6l-26.674,14.348-5.1-2.746,26.674-14.348Z" fill="#292320"/>
      <path id="Контур_322" data-name="Контур 322" d="M281.358,125.857l26.674,14.348-5.1,2.746L276.254,128.6Z" fill="#292320"/>
    </g>
  </g>
</svg>
