<svg xmlns="http://www.w3.org/2000/svg" width="50" height="37.5" viewBox="0 0 50 37.5">
  <defs>
    <style>
      .cls-1 {
        fill: #969696;
      }
    </style>
  </defs>
  <path id="message" class="cls-1" d="M45.833,6.25H4.167A4.171,4.171,0,0,0,0,10.417V39.583A4.171,4.171,0,0,0,4.167,43.75H45.833A4.171,4.171,0,0,0,50,39.583V10.417A4.171,4.171,0,0,0,45.833,6.25ZM4.167,8.333H45.833a1.982,1.982,0,0,1,.433.088c-3.607,3.3-15.569,14.244-19.754,18.015a2.09,2.09,0,0,1-3.024,0C19.3,22.665,7.34,11.721,3.733,8.421A1.991,1.991,0,0,1,4.167,8.333ZM2.083,39.583V10.417A2.012,2.012,0,0,1,2.2,9.841C4.961,12.368,13.307,20,18.719,24.924c-5.394,4.633-13.742,12.548-16.525,15.2A2.007,2.007,0,0,1,2.083,39.583Zm43.75,2.083H4.167a1.993,1.993,0,0,1-.47-.1c2.876-2.741,11.277-10.7,16.576-15.235.691.627,1.322,1.2,1.819,1.646a4.161,4.161,0,0,0,5.814,0c.5-.448,1.129-1.02,1.82-1.647,5.3,4.533,13.7,12.493,16.576,15.235A1.991,1.991,0,0,1,45.833,41.667Zm2.083-2.083a2.012,2.012,0,0,1-.11.543c-2.784-2.655-11.131-10.569-16.525-15.2C36.693,20,45.038,12.369,47.8,9.841a2.013,2.013,0,0,1,.117.576Z" transform="translate(0 -6.25)"/>
</svg>
